<svg version="1.1" xmlns="http://www.w3.org/2000/svg" xmlns:xlink="http://www.w3.org/1999/xlink" width="48" height="48"><defs><linearGradient x1="14.22988" y1="16.67242" x2="54.9833" y2="52.5408" gradientUnits="userSpaceOnUse" id="color-1"><stop offset="0.57" stop-color="#000000" stop-opacity="0.3"></stop><stop offset="1" stop-color="#000000" stop-opacity="0"></stop></linearGradient><filter id="dropshadow-base"><feColorMatrix type="matrix" values="0 0 0 0 0  0 0 0 0 0  0 0 0 0 0  0 0 0 .8 0"></feColorMatrix> <feOffset dx="0" dy="1"></feOffset> <feGaussianBlur stdDeviation="1"></feGaussianBlur> <feComposite in="SourceGraphic"></feComposite></filter><filter id="dropshadow-banner" x="-10%" y="-10%" width="120%" height="130%"><feColorMatrix type="matrix" values="0 0 0 0 0  0 0 0 0 0  0 0 0 0 0  0 0 0 .4 0"></feColorMatrix> <feOffset dx="0" dy="1"></feOffset> <feGaussianBlur stdDeviation="0.5"></feGaussianBlur> <feComposite in="SourceGraphic"></feComposite></filter></defs><g fill="none" fill-rule="nonzero" stroke="none" stroke-width="none" stroke-linecap="butt" stroke-linejoin="miter" stroke-miterlimit="10" stroke-dasharray="" stroke-dashoffset="0" font-family="none" font-weight="none" font-size="none" text-anchor="none" style="mix-blend-mode: normal"><path d="M2,24c0,-12.15026 9.84974,-22 22,-22c12.15026,0 22,9.84974 22,22c0,12.15026 -9.84974,22 -22,22c-12.15026,0 -22,-9.84974 -22,-22z" id="base 1 5" fill="#1f2b8f" stroke-width="1"></path><path d="M14.22988,29.69924v-11.39846c0,-0.89967 0.72869,-1.62835 1.62835,-1.62835l16.28352,0c0.44983,0 0.85691,0.18217 1.15154,0.4768l12.08117,12.08117c-1.93838,7.94883 -8.19526,14.20571 -16.1441,16.14408l-14.52369,-14.52369c-0.29463,-0.29463 -0.4768,-0.70172 -0.4768,-1.15155z" fill="url(#color-1)" stroke-width="1"></path><path d="M32.14176,16.67242h-16.28352c-0.89966,0 -1.62835,0.72869 -1.62835,1.62835v11.39846c0,0.89966 0.72869,1.62835 1.62835,1.62835h16.28352c0.89966,0 1.62021,-0.72869 1.62021,-1.62835l0.00814,-11.39846c0,-0.89966 -0.72869,-1.62835 -1.62835,-1.62835zM20.7433,19.11495c1.34746,0 2.44253,1.09507 2.44253,2.44253c0,1.35153 -1.09507,2.44253 -2.44253,2.44253c-1.34746,0 -2.44253,-1.091 -2.44253,-2.44253c0,-1.34746 1.09507,-2.44253 2.44253,-2.44253zM25.62835,28.88505h-9.77011v-0.81418c0,-1.62835 3.2567,-2.52394 4.88505,-2.52394c1.62835,0 4.88505,0.89559 4.88505,2.52394zM28.76293,25.62835h1.33525l1.22941,1.62835l-1.62428,1.62428c-1.0625,-0.79789 -1.85632,-1.93367 -2.2227,-3.25263c-0.14248,-0.52107 -0.2239,-1.0625 -0.2239,-1.62835c0,-0.56585 0.08142,-1.10728 0.22797,-1.62835c0.36231,-1.31896 1.15613,-2.45474 2.2227,-3.25263l1.62021,1.62428l-1.22941,1.62835h-1.33525c-0.17912,0.50886 -0.28496,1.05843 -0.28496,1.62835c0,0.56992 0.10177,1.11949 0.28496,1.62835z" fill="none" stroke-width="0"></path><path d="M33.77011,18.30077l-0.00814,11.39846c0,0.89966 -0.72055,1.62835 -1.62021,1.62835h-16.28352c-0.89966,0 -1.62835,-0.72869 -1.62835,-1.62835v-11.39846c0,-0.89966 0.72869,-1.62835 1.62835,-1.62835h16.28352c0.89966,0 1.62835,0.72869 1.62835,1.62835zM18.30077,21.55747c0,1.35153 1.09507,2.44253 2.44253,2.44253c1.34746,0 2.44253,-1.091 2.44253,-2.44253c0,-1.34746 -1.09507,-2.44253 -2.44253,-2.44253c-1.34746,0 -2.44253,1.09507 -2.44253,2.44253zM25.62835,28.07088c0,-1.62835 -3.2567,-2.52394 -4.88505,-2.52394c-1.62835,0 -4.88505,0.89559 -4.88505,2.52394v0.81418h9.77011zM28.47797,24c0,-0.56992 0.10584,-1.11949 0.28496,-1.62835h1.33525l1.22941,-1.62835l-1.62021,-1.62428c-1.06657,0.79789 -1.86039,1.93367 -2.2227,3.25263c-0.14655,0.52107 -0.22797,1.0625 -0.22797,1.62835c0,0.56585 0.08142,1.10728 0.2239,1.62835c0.36638,1.31896 1.1602,2.45474 2.2227,3.25263l1.62428,-1.62428l-1.22941,-1.62835h-1.33525c-0.18319,-0.50886 -0.28496,-1.05843 -0.28496,-1.62835z" fill="#45ba43" stroke-width="0"></path><path d="M2,24c0,-12.15026 9.84974,-22 22,-22c12.15026,0 22,9.84974 22,22c0,12.15026 -9.84974,22 -22,22c-12.15026,0 -22,-9.84974 -22,-22z" id="base 1 1 1" fill="none" stroke-width="1"></path><g fill="#000000" stroke-width="1" font-family="Roboto, sans-serif" font-weight="400" font-size="14" text-anchor="start"></g><rect x="2" y="2" width="44" height="22" fill="none" stroke-width="1"></rect><path d="M2,24v-22h44v22z" fill="none" stroke-width="1"></path><path d="M2,24v-22h44v22z" fill="none" stroke-width="1"></path><path d="M2,24v-22h44v22z" fill="none" stroke-width="1"></path><path d="M2,24v-22h44v22z" fill="none" stroke-width="1"></path></g></svg>